<?xml version="1.0" standalone="no"?><!DOCTYPE svg PUBLIC "-//W3C//DTD SVG 1.1//EN" "http://www.w3.org/Graphics/SVG/1.1/DTD/svg11.dtd"><svg t="1555915874331" class="icon" style="" viewBox="0 0 1024 1024" version="1.1" xmlns="http://www.w3.org/2000/svg" p-id="3814" xmlns:xlink="http://www.w3.org/1999/xlink" width="32" height="32"><defs><style type="text/css"></style></defs><path d="M512 853.333A341.333 341.333 0 0 1 170.667 512 341.333 341.333 0 0 1 512 170.667 341.333 341.333 0 0 1 853.333 512 341.333 341.333 0 0 1 512 853.333m0-768A426.667 426.667 0 0 0 85.333 512 426.667 426.667 0 0 0 512 938.667 426.667 426.667 0 0 0 938.667 512 426.667 426.667 0 0 0 512 85.333z" fill="#c4c4c4" p-id="3815"></path></svg>